# xmcd
#
# Track frame offsets:
#	150
#	14315
#	29487
#	43770
#	61935
#	78185
#	98865
#	113890
#	133752
#	147920
#	163040
#	177357
#	195520
#	211755
#	232372
#	247395
#	278792
#
# Disc length: 3729 seconds
#
# Revision: 1
# Processed by: cddbd v1.5.2PL0 Copyright (c) Steve Scherf et al.
# Submitted via: audiograbber 1.83.01
#
DISCID=f80e8f11
DTITLE=Sound Choice - SC3322
DYEAR=1900
DGENRE=Karaoke
TTITLE0=Daryle Singletary - That's Why I Sing This Way
TTITLE1=Eric Heatherly - Last Man Commited
TTITLE2=Kevin Denney - Cadillac Tears
TTITLE3=Rascal Flatts - These Days
TTITLE4=Danni Leigh - House Of Pain
TTITLE5=Tift Merritt - Virginia, No One Can Warn You
TTITLE6=Alison Krauss - Sitting In The Window Of My Room
TTITLE7=Tommy Shane Steiner - Tell Me Where It Hurts (Radio Version)
TTITLE8=Daryle Singletary - That's Why I Sing This Way (Vocal Version)
TTITLE9=Eric Heatherly - Last Man Commited (Vocal Version)
TTITLE10=Kevin Denney - Cadillac Tears (Vocal Version)
TTITLE11=Rascal Flatts - These Days (Vocal Version)
TTITLE12=Danni Leigh - House Of Pain (Vocal Version)
TTITLE13=Tift Merritt - Virginia, No One Can Warn You (Vocal Version)
TTITLE14=Alison Krauss - Sitting In The WIndow Of My Room (Vocal Version)
TTITLE15=Tommy Shane Steiner - Tell Me Where It Huts (Radio Version) (Vocal Ver
TTITLE15=sion)
TTITLE16=Data Track - Data Track
EXTD=
EXTT0=
EXTT1=
EXTT2=
EXTT3=
EXTT4=
EXTT5=
EXTT6=
EXTT7=
EXTT8=
EXTT9=
EXTT10=
EXTT11=
EXTT12=
EXTT13=
EXTT14=
EXTT15=
EXTT16=
PLAYORDER=
